<?xml version="1.0" encoding="UTF-8"?>
<svg width="200px" height="42px" viewBox="0 0 200 42" version="1.1" xmlns="http://www.w3.org/2000/svg" xmlns:xlink="http://www.w3.org/1999/xlink">
    <!-- Generator: Sketch 41.2 (35397) - http://www.bohemiancoding.com/sketch -->
    <title>Logo</title>
    <desc>Created with Sketch.</desc>
    <defs></defs>
    <g id="Page-1" stroke="none" stroke-width="1" fill="none" fill-rule="evenodd">
        <g id="/HomeAlt" transform="translate(-43.000000, -25.000000)" fill="#FFFFFF">
            <g id="NavigationBar">
                <g id="Logo-Copy" transform="translate(42.000000, 14.000000)">
                    <g id="LogoHorizontal" transform="translate(1.000000, 11.000000)">
                        <path d="M68.856,23.172 L68.856,33 L62.7,33 L62.7,7.728 L72.672,7.728 C75.6000146,7.728 77.8799918,8.48399244 79.512,9.996 C81.1440082,11.5080076 81.96,13.3319893 81.96,15.468 C81.96,16.9320073 81.5160044,18.359993 80.628,19.752 C79.7399956,21.144007 78.2880101,22.1279971 76.272,22.704 L82.464,33 L75.264,33 L69.576,23.172 L68.856,23.172 Z M68.856,12.408 L68.856,18.492 L72.672,18.492 C73.6080047,18.492 74.3459973,18.2160028 74.886,17.664 C75.4260027,17.1119972 75.696,16.3860045 75.696,15.486 C75.696,14.5859955 75.4200028,13.8480029 74.868,13.272 C74.3159972,12.6959971 73.5840046,12.408 72.672,12.408 L68.856,12.408 Z M102.80175,22.956 C102.80175,21.3239918 102.381754,20.0820043 101.54175,19.23 C100.701745,18.3779957 99.7057554,17.952 98.5537496,17.952 C97.4017439,17.952 96.4117538,18.3779957 95.5837496,19.23 C94.7557455,20.0820043 94.3417496,21.3239918 94.3417496,22.956 C94.3417496,24.5880082 94.7677454,25.8359957 95.6197496,26.7 C96.4717539,27.5640043 97.4737439,27.996 98.6257496,27.996 C99.7777554,27.996 100.761746,27.5640043 101.57775,26.7 C102.393754,25.8359957 102.80175,24.5880082 102.80175,22.956 Z M88.0777496,22.92 C88.0777496,19.8239845 89.0857396,17.3460093 91.1017496,15.486 C93.1177597,13.6259907 95.6137348,12.696 98.5897496,12.696 C101.565765,12.696 104.05574,13.6259907 106.05975,15.486 C108.06376,17.3460093 109.06575,19.8239845 109.06575,22.92 C109.06575,26.0160155 108.06976,28.5119905 106.07775,30.408 C104.08574,32.3040095 101.601765,33.252 98.6257496,33.252 C95.6497348,33.252 93.1477598,32.3040095 91.1197496,30.408 C89.0917395,28.5119905 88.0777496,26.0160155 88.0777496,22.92 Z M129.079499,22.956 C129.079499,21.3239918 128.659503,20.0820043 127.819499,19.23 C126.979495,18.3779957 125.983505,17.952 124.831499,17.952 C123.679494,17.952 122.689503,18.3779957 121.861499,19.23 C121.033495,20.0820043 120.619499,21.3239918 120.619499,22.956 C120.619499,24.5880082 121.045495,25.8359957 121.897499,26.7 C122.749504,27.5640043 123.751494,27.996 124.903499,27.996 C126.055505,27.996 127.039495,27.5640043 127.855499,26.7 C128.671503,25.8359957 129.079499,24.5880082 129.079499,22.956 Z M114.355499,22.92 C114.355499,19.8239845 115.363489,17.3460093 117.379499,15.486 C119.395509,13.6259907 121.891484,12.696 124.867499,12.696 C127.843514,12.696 130.333489,13.6259907 132.337499,15.486 C134.341509,17.3460093 135.343499,19.8239845 135.343499,22.92 C135.343499,26.0160155 134.347509,28.5119905 132.355499,30.408 C130.363489,32.3040095 127.879514,33.252 124.903499,33.252 C121.927484,33.252 119.425509,32.3040095 117.397499,30.408 C115.369489,28.5119905 114.355499,26.0160155 114.355499,22.92 Z M148.229249,12.912 L148.229249,15.864 C149.501255,13.7519894 151.529235,12.696 154.313249,12.696 C155.801256,12.696 157.127243,13.0319966 158.291249,13.704 C159.455255,14.3760034 160.361246,15.3359938 161.009249,16.584 C161.753253,15.4079941 162.719243,14.4660035 163.907249,13.758 C165.095255,13.0499965 166.421242,12.696 167.885249,12.696 C170.333261,12.696 172.277242,13.4519924 173.717249,14.964 C175.157256,16.4760076 175.877249,18.5759866 175.877249,21.264 L175.877249,33 L169.757249,33 L169.757249,22.092 C169.757249,20.7959935 169.415252,19.7940035 168.731249,19.086 C168.047246,18.3779965 167.105255,18.024 165.905249,18.024 C164.705243,18.024 163.763252,18.3779965 163.079249,19.086 C162.395246,19.7940035 162.053249,20.7959935 162.053249,22.092 L162.053249,33 L155.933249,33 L155.933249,22.092 C155.933249,20.7959935 155.591252,19.7940035 154.907249,19.086 C154.223246,18.3779965 153.281255,18.024 152.081249,18.024 C150.881243,18.024 149.939252,18.3779965 149.255249,19.086 C148.571246,19.7940035 148.229249,20.7959935 148.229249,22.092 L148.229249,33 L142.073249,33 L142.073249,12.912 L148.229249,12.912 Z M182.498999,18.96 C182.498999,17.1839911 183.254991,15.696006 184.766999,14.496 C186.279006,13.295994 188.324986,12.696 190.904999,12.696 C193.485011,12.696 195.566991,13.2839941 197.150999,14.46 C198.735006,15.6360059 199.574998,17.2439898 199.670999,19.284 L193.370999,19.284 C193.298998,18.5879965 193.059001,18.1140013 192.650999,17.862 C192.242997,17.6099987 191.631003,17.484 190.814999,17.484 C189.206991,17.484 188.402999,17.9759951 188.402999,18.96 C188.402999,19.8480044 189.386989,20.4599983 191.354999,20.796 C193.347009,21.1320017 195.15899,21.6479965 196.790999,22.344 C197.631003,22.6800017 198.332996,23.2379961 198.896999,24.018 C199.461001,24.7980039 199.742999,25.7519944 199.742999,26.88 C199.742999,28.7520094 198.939007,30.2819941 197.330999,31.47 C195.722991,32.6580059 193.695011,33.252 191.246999,33.252 C188.798986,33.252 186.759007,32.6940056 185.126999,31.578 C183.49499,30.4619944 182.606999,28.8120109 182.462999,26.628 L188.762999,26.628 C188.930999,27.8520061 189.794991,28.464 191.354999,28.464 C192.075002,28.464 192.668996,28.2960017 193.136999,27.96 C193.605001,27.6239983 193.838999,27.1920026 193.838999,26.664 C193.838999,26.1359974 193.449002,25.7160016 192.668999,25.404 C191.888995,25.0919984 190.947004,24.8280011 189.842999,24.612 C188.738993,24.3959989 187.629004,24.1260016 186.512999,23.802 C185.396993,23.4779984 184.449002,22.914004 183.668999,22.11 C182.888995,21.305996 182.498999,20.2560065 182.498999,18.96 Z" id="Rooms"></path>
                        <g id="Icon">
                            <rect id="Room3" x="27.9105431" y="17.522293" width="14.0418821" height="24.4596131" rx="3"></rect>
                            <rect id="Room2" x="0" y="17.522293" width="23.2140575" height="24.4596131" rx="3"></rect>
                            <rect id="Room1" x="0" y="0" width="41.842544" height="13.2125996" rx="3"></rect>
                        </g>
                    </g>
                </g>
            </g>
        </g>
    </g>
</svg>