<?xml version="1.0" encoding="UTF-8"?>
<svg width="125px" height="27px" viewBox="0 0 125 27" version="1.1" xmlns="http://www.w3.org/2000/svg" xmlns:xlink="http://www.w3.org/1999/xlink">
    <!-- Generator: Sketch 41.2 (35397) - http://www.bohemiancoding.com/sketch -->
    <title>Logo</title>
    <desc>Created with Sketch.</desc>
    <defs></defs>
    <g id="Page-1" stroke="none" stroke-width="1" fill="none" fill-rule="evenodd">
        <g id="/HomeAlt" transform="translate(-42.000000, -20.000000)" fill="#FFFFFF">
            <g id="NavigationBar">
                <g id="Logo" transform="translate(42.000000, 14.000000)">
                    <g id="LogoHorizontal" transform="translate(0.622601, 6.781961)">
                        <path d="M42.8698337,14.2865101 L42.8698337,20.3458844 L39.0371002,20.3458844 L39.0371002,4.76463619 L45.2456802,4.76463619 C47.0686658,4.76463619 48.4881826,5.23073724 49.5042729,6.16295333 C50.5203633,7.09516942 51.0284009,8.21973069 51.0284009,9.53667088 C51.0284009,10.4392928 50.7519686,11.3197059 50.1990959,12.1779366 C49.6462232,13.0361673 48.7422152,13.6428385 47.4870448,13.9979684 L51.3421919,20.3458844 L46.8594627,20.3458844 L43.3181066,14.2865101 L42.8698337,14.2865101 Z M42.8698337,7.65005252 L42.8698337,11.4010937 L45.2456802,11.4010937 C45.8284379,11.4010937 46.287913,11.2309299 46.6241194,10.890597 C46.9603258,10.5502641 47.1284264,10.1026592 47.1284264,9.54776864 C47.1284264,8.99287811 46.9565902,8.5378747 46.6129126,8.18274476 C46.269235,7.82761482 45.8134954,7.65005252 45.2456802,7.65005252 L42.8698337,7.65005252 Z M64.0045008,14.153337 C64.0045008,13.1471355 63.7430109,12.3813981 63.2200232,11.8561017 C62.6970355,11.3308053 62.0769309,11.0681611 61.3596906,11.0681611 C60.6424503,11.0681611 60.0260812,11.3308053 59.5105648,11.8561017 C58.9950484,12.3813981 58.737294,13.1471355 58.737294,14.153337 C58.737294,15.1595385 59.0025195,15.9289752 59.5329785,16.4616701 C60.0634374,16.994365 60.6872776,17.2607084 61.4045179,17.2607084 C62.1217582,17.2607084 62.7343917,16.994365 63.2424369,16.4616701 C63.7504821,15.9289752 64.0045008,15.1595385 64.0045008,14.153337 Z M54.8373196,14.1311415 C54.8373196,12.2223181 55.4648954,10.6945424 56.7200659,9.54776864 C57.9752363,8.40099488 59.5292336,7.8276166 61.3821043,7.8276166 C63.2349749,7.8276166 64.7852366,8.40099488 66.0329358,9.54776864 C67.280635,10.6945424 67.9044753,12.2223181 67.9044753,14.1311415 C67.9044753,16.0399649 67.2843706,17.5788382 66.0441426,18.7478076 C64.8039147,19.916777 63.2573886,20.5012529 61.4045179,20.5012529 C59.5516472,20.5012529 57.9939144,19.916777 56.7312727,18.7478076 C55.468631,17.5788382 54.8373196,16.0399649 54.8373196,14.1311415 Z M80.3650614,14.153337 C80.3650614,13.1471355 80.1035715,12.3813981 79.5805838,11.8561017 C79.0575961,11.3308053 78.4374914,11.0681611 77.7202512,11.0681611 C77.0030109,11.0681611 76.3866418,11.3308053 75.8711254,11.8561017 C75.3556089,12.3813981 75.0978546,13.1471355 75.0978546,14.153337 C75.0978546,15.1595385 75.3630801,15.9289752 75.893539,16.4616701 C76.4239979,16.994365 77.0478382,17.2607084 77.7650784,17.2607084 C78.4823187,17.2607084 79.0949522,16.994365 79.6029974,16.4616701 C80.1110426,15.9289752 80.3650614,15.1595385 80.3650614,14.153337 Z M71.1978802,14.1311415 C71.1978802,12.2223181 71.825456,10.6945424 73.0806264,9.54776864 C74.3357969,8.40099488 75.8897941,7.8276166 77.7426648,7.8276166 C79.5955355,7.8276166 81.1457972,8.40099488 82.3934964,9.54776864 C83.6411956,10.6945424 84.2650358,12.2223181 84.2650358,14.1311415 C84.2650358,16.0399649 83.6449311,17.5788382 82.4047032,18.7478076 C81.1644752,19.916777 79.6179491,20.5012529 77.7650784,20.5012529 C75.9122078,20.5012529 74.3544749,19.916777 73.0918332,18.7478076 C71.8291915,17.5788382 71.1978802,16.0399649 71.1978802,14.1311415 Z M92.28772,7.96078966 L92.28772,9.7808215 C93.0796728,8.47867839 94.3422956,7.8276166 96.0756262,7.8276166 C97.0020615,7.8276166 97.8276226,8.03477262 98.5523341,8.44909088 C99.2770456,8.86340915 99.8411167,9.4552835 100.244564,10.2247317 C100.707782,9.49967474 101.309209,8.91889803 102.048863,8.48238415 C102.788517,8.04587027 103.614078,7.8276166 104.525571,7.8276166 C106.049706,7.8276166 107.260031,8.29371765 108.156581,9.22593374 C109.053132,10.1581498 109.5014,11.452875 109.5014,13.110148 L109.5014,20.3458844 L105.69108,20.3458844 L105.69108,13.6206448 C105.69108,12.8216024 105.478153,12.2038335 105.052291,11.7673197 C104.62643,11.3308058 104.039945,11.1125521 103.29282,11.1125521 C102.545695,11.1125521 101.95921,11.3308058 101.533349,11.7673197 C101.107488,12.2038335 100.89456,12.8216024 100.89456,13.6206448 L100.89456,20.3458844 L97.0842403,20.3458844 L97.0842403,13.6206448 C97.0842403,12.8216024 96.8713128,12.2038335 96.4454514,11.7673197 C96.01959,11.3308058 95.4331054,11.1125521 94.6859801,11.1125521 C93.9388549,11.1125521 93.3523703,11.3308058 92.9265089,11.7673197 C92.5006475,12.2038335 92.28772,12.8216024 92.28772,13.6206448 L92.28772,20.3458844 L88.4549865,20.3458844 L88.4549865,7.96078966 L92.28772,7.96078966 Z M113.62411,11.6896354 C113.62411,10.5946514 114.094792,9.67724615 115.03617,8.93739211 C115.977548,8.19753807 117.251377,7.8276166 118.857696,7.8276166 C120.464016,7.8276166 121.760259,8.19013964 122.746464,8.9151966 C123.732669,9.64025356 124.255649,10.6316431 124.315419,11.889395 L120.393031,11.889395 C120.348204,11.4602796 120.198781,11.1680417 119.944758,11.0126723 C119.690736,10.857303 119.309707,10.7796195 118.801662,10.7796195 C117.800514,10.7796195 117.299948,11.0829551 117.299948,11.6896354 C117.299948,12.2371274 117.912581,12.6144473 119.137867,12.8216064 C120.378095,13.0287655 121.506237,13.346898 122.522327,13.7760133 C123.045315,13.9831725 123.482377,14.3271994 123.833526,14.8081046 C124.184675,15.2890097 124.360246,15.8771848 124.360246,16.5726476 C124.360246,17.7268199 123.85968,18.6701197 122.858532,19.4025752 C121.857384,20.1350307 120.594762,20.5012529 119.070626,20.5012529 C117.54649,20.5012529 116.276397,20.157226 115.260306,19.4691617 C114.244216,18.7810974 113.691351,17.7638134 113.601696,16.417279 L117.524084,16.417279 C117.628682,17.1719302 118.166604,17.5492501 119.137867,17.5492501 C119.586142,17.5492501 119.955964,17.4456721 120.247342,17.2385129 C120.538721,17.0313538 120.684408,16.7650103 120.684408,16.4394746 C120.684408,16.1139388 120.441596,15.8549938 119.955965,15.6626317 C119.470334,15.4702697 118.883849,15.3075042 118.196494,15.1743305 C117.509139,15.0411567 116.818058,14.8746921 116.123232,14.6749315 C115.428405,14.4751709 114.838185,14.1274447 114.352553,13.6317425 C113.866922,13.1360403 113.62411,12.4886777 113.62411,11.6896354 Z" id="Rooms"></path>
                        <g id="Icon">
                            <rect id="Room3" x="17.3771399" y="10.8032287" width="8.74249379" height="15.0803775" rx="3"></rect>
                            <rect id="Room2" x="0" y="10.8032287" width="14.4531019" height="15.0803775" rx="3"></rect>
                            <rect id="Room1" x="0" y="0" width="26.0512214" height="8.14612191" rx="3"></rect>
                        </g>
                    </g>
                </g>
            </g>
        </g>
    </g>
</svg>