<?xml version="1.0" encoding="UTF-8"?>
<svg width="457px" height="86px" viewBox="0 0 457 86" version="1.1" xmlns="http://www.w3.org/2000/svg" xmlns:xlink="http://www.w3.org/1999/xlink">
    <!-- Generator: Sketch 41.2 (35397) - http://www.bohemiancoding.com/sketch -->
    <title>Rooms</title>
    <desc>Created with Sketch.</desc>
    <defs></defs>
    <g id="Page-1" stroke="none" stroke-width="1" fill="none" fill-rule="evenodd">
        <g id="/HomeAlt" transform="translate(-409.000000, -492.000000)" fill="#5729A7">
            <g id="back" transform="translate(-829.000000, -26.000000)">
                <g id="LogoVertical-Copy" transform="translate(1229.000000, 233.000000)">
                    <path d="M29.52,337.24 L29.52,370 L9,370 L9,285.76 L42.24,285.76 C52.0000488,285.76 59.5999728,288.279975 65.04,293.32 C70.4800272,298.360025 73.2,304.439964 73.2,311.56 C73.2,316.440024 71.7200148,321.199977 68.76,325.84 C65.7999852,330.480023 60.9600336,333.75999 54.24,335.68 L74.88,370 L50.88,370 L31.92,337.24 L29.52,337.24 Z M29.52,301.36 L29.52,321.64 L42.24,321.64 C45.3600156,321.64 47.819991,320.720009 49.62,318.88 C51.420009,317.039991 52.32,314.620015 52.32,311.62 C52.32,308.619985 51.4000092,306.16001 49.56,304.24 C47.7199908,302.31999 45.2800152,301.36 42.24,301.36 L29.52,301.36 Z M142.6725,336.52 C142.6725,331.079973 141.272514,326.940014 138.4725,324.1 C135.672486,321.259986 132.352519,319.84 128.5125,319.84 C124.672481,319.84 121.372514,321.259986 118.6125,324.1 C115.852486,326.940014 114.4725,331.079973 114.4725,336.52 C114.4725,341.960027 115.892486,346.119986 118.7325,349 C121.572514,351.880014 124.912481,353.32 128.7525,353.32 C132.592519,353.32 135.872486,351.880014 138.5925,349 C141.312514,346.119986 142.6725,341.960027 142.6725,336.52 Z M93.5925001,336.4 C93.5925001,326.079948 96.9524665,317.820031 103.6725,311.62 C110.392534,305.419969 118.71245,302.32 128.6325,302.32 C138.55255,302.32 146.852467,305.419969 153.5325,311.62 C160.212533,317.820031 163.5525,326.079948 163.5525,336.4 C163.5525,346.720052 160.232533,355.039968 153.5925,361.36 C146.952467,367.680032 138.67255,370.84 128.7525,370.84 C118.83245,370.84 110.492534,367.680032 103.7325,361.36 C96.9724663,355.039968 93.5925001,346.720052 93.5925001,336.4 Z M230.265,336.52 C230.265,331.079973 228.865014,326.940014 226.065,324.1 C223.264986,321.259986 219.945019,319.84 216.105,319.84 C212.264981,319.84 208.965014,321.259986 206.205,324.1 C203.444986,326.940014 202.065,331.079973 202.065,336.52 C202.065,341.960027 203.484986,346.119986 206.325,349 C209.165014,351.880014 212.504981,353.32 216.345,353.32 C220.185019,353.32 223.464987,351.880014 226.185,349 C228.905014,346.119986 230.265,341.960027 230.265,336.52 Z M181.185,336.4 C181.185,326.079948 184.544967,317.820031 191.265,311.62 C197.985034,305.419969 206.304951,302.32 216.225,302.32 C226.14505,302.32 234.444967,305.419969 241.125,311.62 C247.805034,317.820031 251.145,326.079948 251.145,336.4 C251.145,346.720052 247.825033,355.039968 241.185,361.36 C234.544967,367.680032 226.26505,370.84 216.345,370.84 C206.424951,370.84 198.085034,367.680032 191.325,361.36 C184.564966,355.039968 181.185,346.720052 181.185,336.4 Z M294.0975,303.04 L294.0975,312.88 C298.337521,305.839965 305.097454,302.32 314.3775,302.32 C319.337525,302.32 323.757481,303.439989 327.6375,305.68 C331.51752,307.920011 334.537489,311.119979 336.6975,315.28 C339.177513,311.35998 342.39748,308.220012 346.3575,305.86 C350.31752,303.499988 354.737476,302.32 359.6175,302.32 C367.777541,302.32 374.257476,304.839975 379.0575,309.88 C383.857524,314.920025 386.2575,321.919955 386.2575,330.88 L386.2575,370 L365.8575,370 L365.8575,333.64 C365.8575,329.319978 364.717512,325.980012 362.4375,323.62 C360.157489,321.259988 357.01752,320.08 353.0175,320.08 C349.01748,320.08 345.877512,321.259988 343.5975,323.62 C341.317489,325.980012 340.1775,329.319978 340.1775,333.64 L340.1775,370 L319.7775,370 L319.7775,333.64 C319.7775,329.319978 318.637512,325.980012 316.3575,323.62 C314.077489,321.259988 310.93752,320.08 306.9375,320.08 C302.93748,320.08 299.797512,321.259988 297.5175,323.62 C295.237489,325.980012 294.0975,329.319978 294.0975,333.64 L294.0975,370 L273.5775,370 L273.5775,303.04 L294.0975,303.04 Z M408.33,323.2 C408.33,317.27997 410.849975,312.32002 415.89,308.32 C420.930026,304.31998 427.749957,302.32 436.35,302.32 C444.950043,302.32 451.889974,304.27998 457.17,308.2 C462.450027,312.12002 465.249999,317.479966 465.57,324.28 L444.57,324.28 C444.329999,321.959988 443.530007,320.380004 442.17,319.54 C440.809994,318.699996 438.770014,318.28 436.05,318.28 C430.689974,318.28 428.01,319.919984 428.01,323.2 C428.01,326.160015 431.289968,328.199994 437.85,329.32 C444.490034,330.440006 450.529973,332.159988 455.97,334.48 C458.770014,335.600006 461.109991,337.459987 462.99,340.06 C464.87001,342.660013 465.81,345.839981 465.81,349.6 C465.81,355.840031 463.130027,360.93998 457.77,364.9 C452.409974,368.86002 445.650041,370.84 437.49,370.84 C429.32996,370.84 422.530028,368.980019 417.09,365.26 C411.649973,361.539981 408.690003,356.040036 408.21,348.76 L429.21,348.76 C429.770003,352.84002 432.649974,354.88 437.85,354.88 C440.250012,354.88 442.229993,354.320006 443.79,353.2 C445.350008,352.079994 446.13,350.640009 446.13,348.88 C446.13,347.119991 444.830013,345.720005 442.23,344.68 C439.629987,343.639995 436.490019,342.760004 432.81,342.04 C429.129982,341.319996 425.430019,340.420005 421.71,339.34 C417.989982,338.259995 414.830013,336.380013 412.23,333.7 C409.629987,331.019987 408.33,327.520022 408.33,323.2 Z" id="Rooms-Copy"></path>
                </g>
            </g>
        </g>
    </g>
</svg>